<svg xmlns="http://www.w3.org/2000/svg" xmlns:xlink="http://www.w3.org/1999/xlink" width="256" zoomAndPan="magnify" viewBox="0 0 192 63.749997" height="85" preserveAspectRatio="xMidYMid meet" version="1.0"><defs><g/></defs><g fill="#ff66c4" fill-opacity="1"><g transform="translate(-0.551352, 48.2941)"><g><path d="M 24.335938 -12.613281 C 24.335938 -7.832031 21.429688 -3.375 16.269531 -3.375 C 11.113281 -3.375 8.113281 -7.785156 8.113281 -12.378906 C 8.113281 -17.253906 11.488281 -21.523438 16.269531 -21.523438 C 21.101562 -21.523438 24.289062 -17.160156 24.335938 -12.613281 Z M 5.90625 0.28125 C 6.988281 0.28125 7.785156 -0.46875 7.878906 -1.5 L 8.066406 -3.984375 C 10.269531 -1.078125 13.175781 0.5625 16.785156 0.5625 C 24.101562 0.5625 28.601562 -6.046875 28.601562 -12.707031 C 28.601562 -20.023438 23.164062 -25.460938 16.738281 -25.460938 C 13.222656 -25.460938 10.363281 -23.820312 8.160156 -20.960938 L 8.160156 -34.464844 C 8.160156 -35.636719 7.222656 -36.574219 6.09375 -36.574219 C 4.921875 -36.574219 3.984375 -35.636719 3.984375 -34.464844 L 3.984375 -1.640625 C 3.984375 -0.5625 4.828125 0.28125 5.90625 0.28125 Z M 5.90625 0.28125 "/></g></g></g><g fill="#9e98ff" fill-opacity="1"><g transform="translate(28.605038, 48.2941)"><g><path d="M 8.347656 -1.828125 L 8.347656 -34.464844 C 8.347656 -35.636719 7.410156 -36.574219 6.285156 -36.574219 C 5.109375 -36.574219 4.171875 -35.636719 4.171875 -34.464844 L 4.171875 -1.828125 C 4.171875 -0.65625 5.109375 0.28125 6.238281 0.28125 C 7.410156 0.28125 8.347656 -0.65625 8.347656 -1.828125 Z M 8.347656 -1.828125 "/></g></g></g><g fill="#9e98ff" fill-opacity="1"><g transform="translate(39.247668, 48.2941)"><g><path d="M 14.113281 -21.617188 C 18.238281 -21.617188 21.335938 -18.804688 21.851562 -14.394531 L 6.613281 -14.394531 C 7.128906 -18.472656 9.707031 -21.617188 14.113281 -21.617188 Z M 20.351562 -5.859375 C 19.273438 -4.734375 17.863281 -3.328125 14.722656 -3.328125 C 9.707031 -3.328125 7.035156 -6.894531 6.613281 -11.066406 L 24.710938 -11.066406 C 25.460938 -11.066406 26.070312 -11.628906 26.070312 -12.378906 C 26.023438 -19.367188 21.664062 -25.460938 14.207031 -25.460938 C 6.753906 -25.460938 2.4375 -19.320312 2.4375 -12.472656 C 2.4375 -4.828125 7.785156 0.5625 14.582031 0.5625 C 20.023438 0.5625 23.914062 -2.90625 23.914062 -4.875 C 23.914062 -5.8125 23.070312 -6.707031 21.992188 -6.707031 C 21.242188 -6.707031 20.773438 -6.285156 20.351562 -5.859375 Z M 20.351562 -5.859375 "/></g></g></g><g fill="#9e98ff" fill-opacity="1"><g transform="translate(65.034253, 48.2941)"><g><path d="M 23.960938 -18.003906 C 23.960938 -22.179688 21.757812 -25.460938 16.410156 -25.460938 C 12.941406 -25.460938 11.207031 -24.101562 7.925781 -21.054688 L 7.738281 -23.445312 C 7.644531 -24.429688 6.847656 -25.179688 5.859375 -25.179688 C 4.828125 -25.179688 3.984375 -24.335938 3.984375 -23.304688 L 3.984375 -1.828125 C 3.984375 -0.703125 4.875 0.28125 6.046875 0.28125 C 7.222656 0.28125 8.160156 -0.65625 8.160156 -1.828125 L 8.160156 -17.535156 C 11.628906 -20.257812 13.457031 -21.523438 15.894531 -21.523438 C 18.804688 -21.523438 19.789062 -19.695312 19.789062 -17.628906 L 19.789062 -1.828125 C 19.789062 -0.65625 20.726562 0.28125 21.851562 0.28125 C 23.023438 0.28125 23.960938 -0.65625 23.960938 -1.828125 Z M 23.960938 -18.003906 "/></g></g></g><g fill="#9e98ff" fill-opacity="1"><g transform="translate(91.336572, 48.2941)"><g><path d="M 6.660156 -12.613281 C 6.707031 -17.160156 9.941406 -21.523438 14.769531 -21.523438 C 19.554688 -21.523438 22.929688 -17.253906 22.929688 -12.378906 C 22.929688 -7.785156 19.929688 -3.375 14.816406 -3.375 C 9.613281 -3.375 6.660156 -7.832031 6.660156 -12.613281 Z M 24.992188 -36.574219 C 23.820312 -36.574219 22.882812 -35.636719 22.882812 -34.511719 L 22.882812 -20.960938 C 20.726562 -23.820312 17.816406 -25.460938 14.300781 -25.460938 C 7.878906 -25.460938 2.4375 -20.023438 2.4375 -12.707031 C 2.4375 -6.046875 6.941406 0.5625 14.253906 0.5625 C 17.863281 0.5625 20.820312 -1.078125 23.023438 -3.984375 L 23.164062 -1.546875 C 23.210938 -0.421875 24.195312 0.28125 25.085938 0.28125 C 26.164062 0.28125 27.054688 -0.609375 27.054688 -1.6875 L 27.054688 -34.511719 C 27.054688 -35.636719 26.117188 -36.574219 24.992188 -36.574219 Z M 24.992188 -36.574219 "/></g></g></g><g fill="#9e98ff" fill-opacity="1"><g transform="translate(120.452002, 48.2941)"><g><path d="M 2.25 -18.144531 C 2.25 -7.128906 10.738281 0.5625 20.867188 0.5625 C 30.949219 0.5625 39.480469 -7.269531 39.480469 -18.144531 C 39.480469 -28.648438 31.464844 -36.855469 20.867188 -36.855469 C 10.738281 -36.855469 2.25 -29.164062 2.25 -18.144531 Z M 34.839844 -18.191406 C 34.839844 -9.753906 28.789062 -3.609375 20.960938 -3.609375 C 13.175781 -3.609375 6.894531 -9.894531 6.894531 -18.097656 C 6.894531 -26.070312 12.753906 -32.683594 20.914062 -32.683594 C 28.460938 -32.683594 34.839844 -26.820312 34.839844 -18.191406 Z M 34.839844 -18.191406 "/></g></g></g><g fill="#9e98ff" fill-opacity="1"><g transform="translate(160.444829, 48.2941)"><g><path d="M 27.804688 -10.035156 C 27.804688 -16.691406 22.882812 -18.570312 16.175781 -20.867188 C 10.550781 -22.789062 7.550781 -23.820312 7.550781 -27.289062 C 7.550781 -30.054688 9.472656 -32.683594 14.441406 -32.683594 C 17.675781 -32.683594 19.507812 -31.558594 21.382812 -30.335938 C 21.898438 -29.960938 22.507812 -29.773438 23.070312 -29.773438 C 24.289062 -29.773438 25.273438 -30.804688 25.273438 -32.027344 C 25.273438 -34.839844 18.523438 -36.902344 14.535156 -36.902344 C 8.207031 -36.902344 2.90625 -33.855469 2.90625 -26.960938 C 2.90625 -20.398438 7.691406 -18.617188 14.347656 -16.457031 C 20.117188 -14.582031 23.210938 -13.550781 23.210938 -9.707031 C 23.210938 -5.8125 20.070312 -3.609375 15.566406 -3.609375 C 10.644531 -3.609375 7.691406 -6.285156 6.707031 -6.941406 C 6.140625 -7.316406 5.578125 -7.503906 5.0625 -7.503906 C 3.796875 -7.503906 2.765625 -6.285156 2.765625 -5.15625 C 2.765625 -4.5 3 -3.890625 3.515625 -3.515625 C 6.800781 -0.9375 10.457031 0.5625 15.285156 0.5625 C 23.304688 0.5625 27.804688 -3.65625 27.804688 -10.035156 Z M 27.804688 -10.035156 "/></g></g></g></svg>